<svg version="1.1" id="Layer_1" xmlns="http://www.w3.org/2000/svg" xmlns:xlink="http://www.w3.org/1999/xlink" x="0px" y="0px" width="1200px" height="1200px" viewBox="0 0 1200 1200" enable-background="new 0 0 1200 1200" xml:space="preserve">
<g>
	<path fill="#EA5736" d="M1110.674,858.699c-21.786-148.859-250.581-464.261-255.21-470.693v-1.095
		c0,0-238.457,322.763-260.478,473.181c0,0-28.801,257.11,255.242,260.267l0,0c0,0,0.023,0,0.069,0
		c1.717,0.039,3.347,0.148,5.166,0.148v-0.298C1139.498,1117.011,1110.674,858.699,1110.674,858.699z" style="fill: rgb(138, 3, 3);"></path>
	<path fill="#FEEDE0" d="M824.844,1062.395l-0.015-0.385c-50.429-2.307-90.819-18.164-119.84-47.562
		c-39.909-40.366-49.46-96.637-51.703-121.979l-0.174,0.069c0,0-0.606-13.714-20.233-13.714c-3.489,0-6.308,0.448-8.677,1.079
		c-8.723,2.661-10.11,12.337-10.29,14.778c2.48,30.327,13.541,97.099,62.804,147.157c36.823,37.413,87.07,57.279,149.174,59.584
		c3.881-0.888,11.455-4.346,11.455-17.801C837.346,1065.521,824.844,1062.395,824.844,1062.395z"></path>
	<path fill="#EA5736" d="M553.32,863.565c14.778-101.022,112.854-268.297,193.91-392.717
		c-111.518-204.9-262.36-412.857-266.983-419.234V50c0,0-357.523,483.999-390.511,709.497c0,0-43.233,385.521,382.725,390.299h0.063
		c2.63,0.016,5.025,0.205,7.724,0.205v-0.448c73.695-0.819,133.042-13.267,181.29-33.02
		C534.858,1029.525,553.32,863.565,553.32,863.565z" style="fill: rgb(138, 3, 3);"></path>
	<path fill="#FEEDE0" d="M434.419,1062.875l-0.032-0.519c-75.654-3.512-136.167-27.297-179.714-71.363
		c-59.868-60.576-74.127-144.931-77.528-182.918l-0.245,0.094c0,0-0.929-20.533-30.327-20.533c-5.219,0-9.512,0.614-13.022,1.598
		c-13.109,3.992-15.141,18.487-15.447,22.147c3.707,45.532,20.336,145.624,94.155,220.672
		c55.231,56.121,130.578,85.912,223.671,89.329c5.834-1.322,17.211-6.487,17.211-26.65
		C453.141,1067.583,434.419,1062.875,434.419,1062.875z"></path>
</g>
</svg>